<?xml version="1.0" encoding="utf-8"?>
<!-- Svg Vector Icons : http://www.onlinewebfonts.com/icon -->
<!DOCTYPE svg PUBLIC "-//W3C//DTD SVG 1.1//EN" "http://www.w3.org/Graphics/SVG/1.1/DTD/svg11.dtd">
<svg version="1.1" xmlns="http://www.w3.org/2000/svg" xmlns:xlink="http://www.w3.org/1999/xlink" x="0px" y="0px" viewBox="0 0 1000 1000" enable-background="new 0 0 1000 1000" xml:space="preserve">
<metadata> Svg Vector Icons : http://www.onlinewebfonts.com/icon </metadata>
<g><g><path d="M972.9,478.9l-86.1-46.6V191c0-12.1-6.6-23.3-17.3-29L625.4,29.8c-9.9-5.3-21.6-5.3-31.5,0L349.9,161.9c-10.6,5.8-17.3,16.9-17.3,29v39.2l-29.7-16.1c-9.9-5.3-21.7-5.3-31.5,0L27.3,346.3c-10.7,5.8-17.3,16.9-17.3,29v301.1c0,12.1,6.6,23.3,17.3,29l244.1,132.2c4.9,2.7,10.3,4,15.7,4c5.4,0,10.8-1.4,15.7-4l133-72.1V809c0,12.1,6.6,23.3,17.4,29.1l244,132.2c4.9,2.6,10.3,4,15.7,4c5.4,0,10.8-1.4,15.7-4l244-132.2c10.6-5.8,17.3-16.9,17.3-29.1V508C990.2,495.8,983.5,484.7,972.9,478.9z M691.1,350.2l-48.3,26.2v-33.4l44-23.9v15.2C686.8,340,688.4,345.4,691.1,350.2z M713.1,413.4L887.7,508l-61.2,33.1L662.3,440.8L713.1,413.4z M820.8,396.5l-75.8-41c4.9-5.8,8-13.1,8-21.3v-50.9l67.8-36.7L820.8,396.5L820.8,396.5z M609.7,96.4L784.4,191l-61.2,33.1L559,123.8L609.7,96.4z M491.7,160.3l164.4,100.3l-46.3,25.1L435.1,191L491.7,160.3z M287.1,280.7l45.4,24.7l129.2,69.9l-61.1,33.1l-68.1-41.5l-96.2-58.7L287.1,280.7z M287.2,470l-174.7-94.7l56.7-30.7l163.4,99.7l0.9,0.5l-0.9,0.5L287.2,470z M320.2,753.1V527.2l22-11.9l22.1-11.9v15.2c0,4.1,0.8,8,2.2,11.5c4.7,12.6,16.7,21.4,30.9,21.4c2.5,0,4.9-0.4,7.2-0.8c14.7-3.3,25.8-16.5,25.8-32.2v-51l67.8-36.7v23.8L453.3,479c-10.7,5.8-17.3,16.9-17.3,29.1v182.4L320.2,753.1z M713.1,602.6L538.4,508l56.7-30.8l164.3,100.3L713.1,602.6z M924,789.4l-178,96.4V659.9l44.1-23.9v15.2c0,18.3,14.8,33,33,33c18.3,0,33-14.8,33-33v-50.9l67.8-36.7V789.4L924,789.4z"/></g><g></g><g></g><g></g><g></g><g></g><g></g><g></g><g></g><g></g><g></g><g></g><g></g><g></g><g></g><g></g></g>
</svg>